<!-- icon666.com - MILLIONS OF FREE VECTOR ICONS --><svg id="flat_final" viewBox="0 0 48 48" xmlns="http://www.w3.org/2000/svg" data-name="flat final"><path d="m20.105 9.758v.294h-9.786v-.294l.651-2.645h8.484z" fill="#549cc3"></path><path d="m.75 9.758h28.925v37.492h-28.925z" fill="#4072a5"></path><path d="m3.367 12.375h23.69v32.257h-23.69z" fill="#e5f9ff"></path><path d="m47.25 0h-1.7a.75.75 0 0 0 0 1.5h.95v6.107a5.753 5.753 0 0 1 -11.506 0v-6.107h1.363a.75.75 0 0 0 0-1.5h-2.113a.75.75 0 0 0 -.75.75v6.857a7.263 7.263 0 0 0 6.506 7.214v2.153a18.73 18.73 0 0 1 -2.718 10c-3.133-3.57-7.13-6.9-11.136-6.9a8.248 8.248 0 0 0 -6.164 2.377 7.553 7.553 0 0 0 -2.025 5.25 7.59 7.59 0 0 0 7.715 7.78 14.517 14.517 0 0 0 11.689-6.061 57.458 57.458 0 0 1 4.674 6.815.75.75 0 0 0 1.308-.734 56.392 56.392 0 0 0 -5.083-7.371 21.109 21.109 0 0 0 3.24-11.156v-2.153a7.263 7.263 0 0 0 6.5-7.214v-6.857a.75.75 0 0 0 -.75-.75zm-21.581 33.979a6.052 6.052 0 0 1 -6.215-6.28 6.061 6.061 0 0 1 1.611-4.216 6.794 6.794 0 0 1 5.078-1.911c3.578 0 7.306 3.244 10.252 6.681a13.837 13.837 0 0 1 -10.726 5.726z" fill="#f5d26c"></path><path d="m44.023 35.693a2.821 2.821 0 1 0 2.821 2.821 2.821 2.821 0 0 0 -2.821-2.821z" fill="#e5f9ff"></path><g fill="#5a5a55"><path d="m19.654 18.887h-12.154a.75.75 0 1 1 0-1.5h12.154a.75.75 0 0 1 0 1.5z"></path><path d="m15.976 24.171h-8.476a.75.75 0 1 1 0-1.5h8.474a.75.75 0 0 1 0 1.5z"></path><path d="m15.976 29.455h-8.476a.75.75 0 0 1 0-1.5h8.474a.75.75 0 0 1 0 1.5z"></path><path d="m15.976 34.739h-8.476a.75.75 0 0 1 0-1.5h8.474a.75.75 0 0 1 0 1.5z"></path><path d="m22.959 40.023h-15.459a.75.75 0 0 1 0-1.5h15.459a.75.75 0 0 1 0 1.5z"></path></g></svg>