<!-- icon666.com - MILLIONS OF FREE VECTOR ICONS --><svg id="Capa_1" enable-background="new 0 0 512 512" viewBox="0 0 512 512" xmlns="http://www.w3.org/2000/svg"><g><path d="m499.803 230.062-64.007 24.658v-131.354l64.007 24.658c2.302.887 3.82 3.099 3.82 5.565v70.907c0 2.467-1.518 4.679-3.82 5.566z" fill="#df646e"></path><path d="m499.803 122.931-64.007 24.658v-131.353l64.007 24.658c2.302.887 3.82 3.099 3.82 5.565v70.907c0 2.467-1.518 4.679-3.82 5.565z" fill="#ffa95f"></path><path d="m80.674 5.226v433.178c0 2.886 2.34 5.226 5.226 5.226h357.752c2.886 0 5.226-2.34 5.226-5.226v-433.178c0-2.886-2.34-5.226-5.226-5.226h-357.752c-2.886 0-5.226 2.34-5.226 5.226z" fill="#6cbff8"></path><path d="m443.652 0h-37.087c2.886 0 5.226 2.34 5.226 5.226v433.178c0 2.886-2.34 5.226-5.226 5.226h37.087c2.886 0 5.226-2.34 5.226-5.226v-433.178c0-2.886-2.34-5.226-5.226-5.226z" fill="#5fa7ee"></path><path d="m348.346 94.675v412.099c0 2.886-2.34 5.226-5.226 5.226h-233.962l-100.781-100.781v-316.544c0-2.886 2.34-5.226 5.226-5.226h329.517c2.886 0 5.226 2.34 5.226 5.226z" fill="#ddebfd"></path><path d="m343.12 89.449h-37.087c2.886 0 5.226 2.34 5.226 5.226v412.099c0 2.886-2.34 5.226-5.226 5.226h37.087c2.886 0 5.226-2.34 5.226-5.226v-412.099c0-2.886-2.34-5.226-5.226-5.226z" fill="#bed9fd"></path><path d="m173.082 173.08h-33.25c-1.27 0-2.299-1.029-2.299-2.299v-33.25c0-1.904-1.544-3.448-3.448-3.448h-33.842c-1.904 0-3.448 1.544-3.448 3.448v33.25c0 1.27-1.029 2.299-2.299 2.299h-33.25c-1.904 0-3.448 1.544-3.448 3.448v33.842c0 1.904 1.544 3.448 3.448 3.448h33.25c1.27 0 2.299 1.029 2.299 2.299v33.25c0 1.904 1.544 3.448 3.448 3.448h33.842c1.904 0 3.448-1.544 3.448-3.448v-33.25c0-1.27 1.029-2.299 2.299-2.299h33.25c1.904 0 3.448-1.544 3.448-3.448v-33.842c0-1.904-1.543-3.448-3.448-3.448z" fill="#df646e"></path><path d="m295.792 183.96h-43.634c-1.724 0-3.122-1.398-3.122-3.122v-43.634c0-1.724 1.398-3.122 3.122-3.122h43.634c1.724 0 3.122 1.398 3.122 3.122v43.634c-.001 1.725-1.398 3.122-3.122 3.122z" fill="#5392f9"></path><path d="m109.158 512v-90.442c0-5.71-4.629-10.339-10.339-10.339h-90.442z" fill="#bed9fd"></path><g fill="#407194"><path d="m298.913 436.306h-152.33c-4.267 0-7.726-3.459-7.726-7.726s3.459-7.726 7.726-7.726h152.33c4.267 0 7.726 3.459 7.726 7.726s-3.458 7.726-7.726 7.726z"></path><path d="m90.866 319.129h-33.067c-4.267 0-7.726-3.459-7.726-7.726s3.459-7.726 7.726-7.726h33.067c4.267 0 7.726 3.459 7.726 7.726.001 4.267-3.459 7.726-7.726 7.726z"></path><path d="m298.913 319.129h-152.33c-4.267 0-7.726-3.459-7.726-7.726s3.459-7.726 7.726-7.726h152.33c4.267 0 7.726 3.459 7.726 7.726.001 4.267-3.458 7.726-7.726 7.726z"></path><path d="m90.866 377.718h-33.067c-4.267 0-7.726-3.459-7.726-7.726s3.459-7.726 7.726-7.726h33.067c4.267 0 7.726 3.459 7.726 7.726.001 4.267-3.459 7.726-7.726 7.726z"></path><path d="m298.913 377.718h-152.33c-4.267 0-7.726-3.459-7.726-7.726s3.459-7.726 7.726-7.726h152.33c4.267 0 7.726 3.459 7.726 7.726.001 4.267-3.458 7.726-7.726 7.726z"></path></g></g></svg>