<!-- icon666.com - MILLIONS OF FREE VECTOR ICONS --><svg enable-background="new 0 0 32 32" viewBox="0 0 32 32" xmlns="http://www.w3.org/2000/svg"><g id="Layer_6"><path d="m29.1 8.26v3.5h-26.2v-3.5c0-2.11 1.7-3.8 3.79-3.8h18.62c2.09 0 3.79 1.69 3.79 3.8z" fill="#51eaea"></path><path d="m29.1 11.76v16.63c0 .9-.73 1.61-1.61 1.61h-22.98c-.88 0-1.61-.71-1.61-1.61v-16.63z" fill="#d6e6f2"></path><path d="m29.1 8.26v3.5h-2.71v-3.5c0-2.11-1.7-3.8-3.79-3.8h2.71c2.09 0 3.79 1.69 3.79 3.8z" opacity=".15"></path><path d="m29.1 11.76v16.63c0 .9-.73 1.61-1.61 1.61h-2.71c.88 0 1.61-.71 1.61-1.61v-16.63z" opacity=".15"></path><path d="m2.899 8.26v3.5h2.71v-3.5c0-2.11 1.7-3.8 3.79-3.8h-2.71c-2.09 0-3.79 1.69-3.79 3.8z" fill="#fff" opacity=".4"></path><path d="m2.899 11.76v16.63c0 .9.73 1.61 1.61 1.61h2.71c-.88 0-1.61-.71-1.61-1.61v-16.63z" fill="#fff" opacity=".4"></path><g fill="#888"><path d="m9.352 6.925c-.538 0-.975-.436-.975-.975v-2.975c.001-.539.437-.975.975-.975.538 0 .975.436.975.975v2.975c0 .539-.436.975-.975.975z"></path><path d="m16 6.925c-.538 0-.975-.436-.975-.975v-2.975c0-.539.437-.975.975-.975.538 0 .975.436.975.975v2.975c0 .539-.437.975-.975.975z"></path><path d="m22.648 6.925c-.538 0-.975-.436-.975-.975v-2.975c0-.539.436-.975.975-.975.538 0 .975.436.975.975v2.975c-.001.539-.437.975-.975.975z"></path></g><path d="m20.882 18.962v3.84h-2.962v2.962h-3.84v-2.962h-2.962v-3.84h2.962v-2.962h3.84v2.962z" fill="#ff5b44"></path><path d="m29.475 11.755v-3.495c0-2.302-1.868-4.175-4.165-4.175h-1.313v-1.11c0-.744-.605-1.35-1.35-1.35s-1.35.605-1.35 1.35v1.11h-3.947v-1.11c0-.744-.605-1.35-1.35-1.35s-1.35.605-1.35 1.35v1.11h-3.948v-1.11c0-.744-.605-1.35-1.35-1.35s-1.35.605-1.35 1.35v1.11h-1.312c-2.297 0-4.165 1.873-4.165 4.175v3.495c0 .003-.002.006-.002.01v16.623c0 1.096.892 1.988 1.988 1.988h22.977c1.097 0 1.988-.892 1.988-1.988v-16.624c.001-.003-.001-.006-.001-.009zm-7.427-8.78c0-.331.269-.6.6-.6s.6.269.6.6v1.475c0 .003-.002.006-.002.01s.002.006.002.01v1.481c0 .331-.269.6-.6.6s-.6-.269-.6-.6zm-6.048-.6c.331 0 .6.269.6.6v1.461c-.001.008-.005.016-.005.024s.004.016.005.024v1.467c0 .331-.269.6-.6.6s-.6-.269-.6-.6v-1.467c.001-.008.005-.016.005-.024s-.004-.016-.005-.024v-1.461c0-.331.269-.6.6-.6zm-6.647 0c.331 0 .6.269.6.6v2.976c0 .331-.269.6-.6.6s-.6-.269-.6-.6v-1.481c0-.003.002-.006.002-.01s-.002-.006-.002-.01v-1.475c0-.331.268-.6.6-.6zm-6.078 5.885c0-1.889 1.532-3.425 3.415-3.425h1.313v1.116c0 .744.605 1.35 1.35 1.35s1.35-.605 1.35-1.35v-1.116h3.948v1.116c0 .744.605 1.35 1.35 1.35s1.35-.605 1.35-1.35v-1.116h3.948v1.116c0 .744.605 1.35 1.35 1.35s1.35-.605 1.35-1.35v-1.116h1.313c1.883 0 3.415 1.536 3.415 3.425v3.125h-25.452zm25.452 20.127c0 .683-.556 1.238-1.238 1.238h-22.977c-.683 0-1.238-.555-1.238-1.238v-16.248h25.453z"></path><path d="m11.118 23.177h2.587v2.587c0 .207.168.375.375.375h3.84c.207 0 .375-.168.375-.375v-2.587h2.587c.207 0 .375-.168.375-.375v-3.84c0-.207-.168-.375-.375-.375h-2.587v-2.587c0-.207-.168-.375-.375-.375h-3.84c-.207 0-.375.168-.375.375v2.587h-2.587c-.207 0-.375.168-.375.375v3.84c0 .207.168.375.375.375zm.375-3.84h2.587c.207 0 .375-.168.375-.375v-2.587h3.09v2.587c0 .207.168.375.375.375h2.587v3.09h-2.587c-.207 0-.375.168-.375.375v2.587h-3.09v-2.587c0-.207-.168-.375-.375-.375h-2.587z"></path></g></svg>