<!-- icon666.com - MILLIONS OF FREE VECTOR ICONS --><svg id="Flat" viewBox="0 0 512 512" xmlns="http://www.w3.org/2000/svg"><path d="m320 240c43.387 0 82.906 24.215 112.7 64 33.973 45.364 55.3 110.97 55.3 184h-464c0-73.031 21.328-138.637 55.3-184 29.793-39.784 69.312-64 112.7-64z" fill="#e9eef2"></path><path d="m344 280-24 208h-120l-32-208 24-40c7.16 0 13.22-14.1 15.26-33.57a138.108 138.108 0 0 0 .74-14.43h96a138.108 138.108 0 0 0 .74 14.43c2.04 19.47 8.1 33.57 15.26 33.57z" fill="#f0dfce"></path><path d="m344 280-24 208h-120l-32-208 24-40 64 24 64-24z" fill="#3397e8"></path><path d="m344 280-88 24-88-24 24-40 64 24 64-24z" fill="#2d85cc"></path><path d="m280 296v1.45l-24 6.55-24-6.55v-1.45l20.08-33.47 3.92 1.47 3.92-1.47z" fill="#2d85cc"></path><path d="m256 456-32-32 32-120 32 120z" fill="#e9eef2"></path><path d="m440 400h-24v-24h-32v24h-24v32h24v24h32v-24h24z" fill="#3397e8"></path><path d="m280 296v1.45l-24 6.55-24-6.55v-1.45l20.08-33.47 3.92 1.47 3.92-1.47z" fill="#e9eef2"></path><path d="m304.74 206.43c-13.49 15.34-30.39 25.57-48.74 25.57s-35.25-10.23-48.74-25.57a138.108 138.108 0 0 0 .74-14.43h96a138.108 138.108 0 0 0 .74 14.43z" fill="#d9c9b9"></path><path d="m336 109.47a99.308 99.308 0 0 1 -.57 10.53c-4.72 45.04-38.48 96-79.43 96s-74.71-50.96-79.43-96a99.308 99.308 0 0 1 -.57-10.53 90.735 90.735 0 0 1 2.55-21.47c8.91-36.81 40.21-64 77.45-64s68.54 27.19 77.45 64a90.735 90.735 0 0 1 2.55 21.47z" fill="#f0dfce"></path><path d="m336 109.47a99.308 99.308 0 0 1 -.57 10.53h-158.86a99.308 99.308 0 0 1 -.57-10.53 90.735 90.735 0 0 1 2.55-21.47h154.9a90.735 90.735 0 0 1 2.55 21.47z" fill="#2d85cc"></path><circle cx="256" cy="88" fill="#d0d2d4" r="32"></circle></svg>